<svg xmlns="http://www.w3.org/2000/svg" xmlns:xlink="http://www.w3.org/1999/xlink" width="245" height="227.698" viewBox="0 0 245 227.698">
  <defs>
    <linearGradient id="linear-gradient" x1="0.064" y1="0.393" x2="0.781" y2="0.575" gradientUnits="objectBoundingBox">
      <stop offset="0" stop-color="#dafced"/>
      <stop offset="0.011" stop-color="#dafced"/>
      <stop offset="0.381" stop-color="#e7f0ed"/>
      <stop offset="1" stop-color="#c1c5f2"/>
    </linearGradient>
  </defs>
  <g id="compass" transform="translate(0 -18.078)">
    <g id="Groupe_2752" data-name="Groupe 2752" transform="translate(0 32.549)">
      <path id="Tracé_12504" data-name="Tracé 12504" d="M240.154,84.43c-10.7-27.222-43.653-43.546-71.565-32.743-31.86,12.331-21.3,63.007-50.236,73.255-15.633,5.535-38.742-15.142-54.536-18.313-29.1-5.843-55.451,14.693-61.938,43.13-6.619,29.012,4,67.762,35.873,75.637,37.97,9.38,57.749-24.753,89.6-34.554,32.687-10.058,69.032,13.7,96.092-15.205C243.438,154.285,250.747,111.385,240.154,84.43Z" transform="translate(0 -48.319)" fill="url(#linear-gradient)"/>
    </g>
    <g id="Groupe_2757" data-name="Groupe 2757" transform="translate(13.139 18.078)">
      <path id="Tracé_12505" data-name="Tracé 12505" d="M244.188,151.231l-61.4-9.6,29.9-58.02a2.274,2.274,0,0,0-3.063-3.063l-58.02,29.9-9.6-61.4a2.609,2.609,0,0,0-5.156,0l-9.6,61.4-58.02-29.9a2.274,2.274,0,0,0-3.063,3.063l29.9,58.02-61.4,9.6a2.609,2.609,0,0,0,0,5.156l61.4,9.6L66.169,224a2.274,2.274,0,0,0,3.063,3.063l58.02-29.9,9.6,61.4a2.609,2.609,0,0,0,5.156,0l9.6-61.4,58.02,29.9A2.274,2.274,0,0,0,212.685,224l-29.9-58.02,61.4-9.6a2.609,2.609,0,0,0,0-5.156Z" transform="translate(-30.066 -33.078)" fill="#2626bc" opacity="0.1"/>
      <g id="Groupe_2756" data-name="Groupe 2756">
        <g id="Groupe_2755" data-name="Groupe 2755">
          <g id="Groupe_2754" data-name="Groupe 2754">
            <path id="Tracé_12506" data-name="Tracé 12506" d="M212.959,166.493,249.135,96.3a2.274,2.274,0,0,0-3.063-3.063l-70.195,36.176L105.682,93.235a2.274,2.274,0,0,0-3.063,3.063l36.176,70.195-36.176,70.195a2.274,2.274,0,0,0,3.063,3.063l70.195-36.176,70.195,36.176a2.274,2.274,0,0,0,3.063-3.063Z" transform="translate(-66.516 -57.134)" fill="#453ecc"/>
            <path id="Tracé_12507" data-name="Tracé 12507" d="M251.674,258.472,203.5,266l-48.17-7.526L166.42,236.96l-1.461-2.839L203.5,228.1l38.546,6.023-1.461,2.839Z" transform="translate(-94.144 -127.6)" fill="#453ecc"/>
            <path id="Tracé_12508" data-name="Tracé 12508" d="M192.751,202.837l-20.7-40.172,40.172,20.7,40.172-20.7-20.7,40.172,20.7,40.172-40.172-20.7-40.172,20.7Z" transform="translate(-102.86 -93.478)" fill="#838def"/>
            <path id="Tracé_12509" data-name="Tracé 12509" d="M253.133,261.018l-17.619,2.751-14.247-7.343-14.247,7.343-17.624-2.751,12.4-24.059-2.777-5.386,22.248-3.476,22.243,3.476-2.777,5.386Z" transform="translate(-111.906 -127.6)" fill="#838def"/>
            <path id="Tracé_12510" data-name="Tracé 12510" d="M244.188,223.386,139.427,207.014,34.666,223.386a2.609,2.609,0,0,0,0,5.156l104.761,16.373,104.761-16.372A2.61,2.61,0,0,0,244.188,223.386Z" transform="translate(-30.066 -116.605)" fill="#6583fe"/>
            <g id="Groupe_2753" data-name="Groupe 2753" transform="translate(90.41 2.392)">
              <path id="Tracé_12511" data-name="Tracé 12511" d="M232.769,25.283,216.4,130.044l16.372,104.761a2.609,2.609,0,0,0,5.156,0L254.3,130.044,237.926,25.283a2.61,2.61,0,0,0-5.156,0Z" transform="translate(-216.397 -23.077)" fill="#8399fe"/>
              <path id="Tracé_12512" data-name="Tracé 12512" d="M254.3,233.289l-4.191,26.83a22.316,22.316,0,0,1-29.518,0l-4.191-26.83.355-2.26a22.053,22.053,0,0,1,2.813-3.434,22.32,22.32,0,0,1,31.563,0,22.075,22.075,0,0,1,2.813,3.434Z" transform="translate(-216.398 -126.322)" fill="#6583fe"/>
            </g>
            <circle id="Ellipse_400" data-name="Ellipse 400" cx="22.318" cy="22.318" r="22.318" transform="translate(87.042 87.041)" fill="#b7c5ff"/>
            <path id="Tracé_12513" data-name="Tracé 12513" d="M241.949,122.5l-58.127-9.087L212.2,58.339a4.667,4.667,0,0,0-6.286-6.286L150.846,80.434l-9.084-58.126a5,5,0,0,0-9.887,0l-9.083,58.126L67.72,52.053a4.667,4.667,0,0,0-6.286,6.286L85.21,104.471a2.392,2.392,0,0,0,4.254-2.192l-23.606-45.8,56.156,28.941-3.678,23.535L31.689,122.5a5,5,0,0,0,0,9.886l58.127,9.084-28.381,55.07a4.664,4.664,0,0,0,6.286,6.286l55.071-28.382,9.084,58.129a5,5,0,0,0,9.887,0l9.084-58.129,55.071,28.381a4.666,4.666,0,0,0,6.287-6.285l-28.382-55.072,8.726-1.364a2.393,2.393,0,1,0-.739-4.728l-34.151,5.339a24.782,24.782,0,0,0,0-26.549l83.554,13.062c.126.02.184.029.184.213s-.063.2-.185.217l-35.673,5.575a2.393,2.393,0,0,0,.367,4.757,2.464,2.464,0,0,0,.372-.029l35.676-5.575a5,5,0,0,0,0-9.885Zm-34.169-66.02-28.94,56.154L155.3,108.951l-3.678-23.534Zm-56.872,85.051a19.926,19.926,0,1,1,0-28.179A19.951,19.951,0,0,1,150.909,141.527ZM136.6,23.047c.02-.126.029-.184.215-.184s.2.057.215.184l13.056,83.544a24.718,24.718,0,0,0-26.542,0ZM32.243,127.437c0-.185.057-.193.184-.213l83.547-13.061a24.72,24.72,0,0,0,0,26.547L32.43,127.654c-.125-.02-.188-.03-.187-.217ZM65.857,198.4,94.8,142.245l23.538,3.678,3.678,23.536Zm71.177,33.431c-.02.124-.028.181-.215.181s-.2-.056-.215-.181l-13.057-83.553a24.751,24.751,0,0,0,26.546,0ZM207.78,198.4l-56.156-28.94,3.678-23.536,23.537-3.679Z" transform="translate(-27.458 -18.078)" fill="#2626bc"/>
          </g>
          <circle id="Ellipse_401" data-name="Ellipse 401" cx="12.394" cy="12.394" r="12.394" transform="translate(96.967 96.965)" fill="#d2deff"/>
        </g>
        <path id="Tracé_12514" data-name="Tracé 12514" d="M446.9,195.265a2.385,2.385,0,0,1-1.692-.7l-2.854-2.854-2.854,2.854a2.393,2.393,0,1,1-3.383-3.384l4.546-4.545a2.393,2.393,0,0,1,3.383,0l4.546,4.545a2.393,2.393,0,0,1-1.692,4.085Z" transform="translate(-240.2 -105.613)" fill="#453ecc"/>
        <path id="Tracé_12515" data-name="Tracé 12515" d="M91.938,324.44a2.385,2.385,0,0,1-1.692-.7l-2.854-2.854-2.854,2.854a2.392,2.392,0,0,1-3.384-3.383L85.7,315.81a2.392,2.392,0,0,1,3.384,0l4.546,4.546a2.393,2.393,0,0,1-1.692,4.084Z" transform="translate(-55.095 -172.975)" fill="#35e7b3"/>
        <path id="Tracé_12516" data-name="Tracé 12516" d="M422.116,156.344a2.383,2.383,0,0,1-1.692-.7l-2.854-2.854-2.854,2.854a2.392,2.392,0,0,1-3.383-3.383l4.546-4.546a2.392,2.392,0,0,1,3.383,0l4.546,4.546a2.393,2.393,0,0,1-1.692,4.084Z" transform="translate(-227.277 -85.316)" fill="#6583fe"/>
        <path id="Tracé_12517" data-name="Tracé 12517" d="M296.7,49a6.935,6.935,0,1,1,4.906-2.029A6.915,6.915,0,0,1,296.7,49Zm0-9.087a2.152,2.152,0,1,0,1.523.629A2.148,2.148,0,0,0,296.7,39.915Z" transform="translate(-164.248 -26.972)" fill="#35e7b3"/>
        <path id="Tracé_12518" data-name="Tracé 12518" d="M195.353,407.736a6.935,6.935,0,1,1,4.906-2.029A6.916,6.916,0,0,1,195.353,407.736Zm0-9.087a2.152,2.152,0,1,0,1.523.629,2.147,2.147,0,0,0-1.523-.629Z" transform="translate(-111.396 -214.046)" fill="#6583fe"/>
      </g>
    </g>
  </g>
</svg>
